<svg width="24" height="24" viewBox="0 0 24 24" fill="none" xmlns="http://www.w3.org/2000/svg">
<path d="M12.7204 10.8004C12.2404 10.6804 11.7604 10.4404 11.4004 10.0804C11.0404 9.96039 10.9204 9.60039 10.9204 9.36039C10.9204 9.12039 11.0404 8.76039 11.2804 8.64039C11.6404 8.40039 12.0004 8.16039 12.3604 8.28039C13.0804 8.28039 13.6804 8.64039 14.0404 9.12039L15.1204 7.68039C14.7604 7.32039 14.4004 7.08039 14.0404 6.84039C13.6804 6.60039 13.2004 6.48039 12.7204 6.48039V4.80039H11.2804V6.48039C10.6804 6.60039 10.0804 6.96039 9.60039 7.44039C9.12039 8.04039 8.76039 8.76039 8.88039 9.48039C8.88039 10.2004 9.12039 10.9204 9.60039 11.4004C10.2004 12.0004 11.0404 12.3604 11.7604 12.7204C12.1204 12.8404 12.6004 13.0804 12.9604 13.3204C13.2004 13.5604 13.3204 13.9204 13.3204 14.2804C13.3204 14.6404 13.2004 15.0004 12.9604 15.3604C12.6004 15.7204 12.1204 15.8404 11.7604 15.8404C11.2804 15.8404 10.6804 15.7204 10.3204 15.3604C9.96039 15.1204 9.60039 14.7604 9.36039 14.4004L8.16039 15.7204C8.52039 16.2004 8.88039 16.5604 9.36039 16.9204C9.96039 17.2804 10.6804 17.6404 11.4004 17.6404V19.2004H12.7204V17.4004C13.4404 17.2804 14.0404 16.9204 14.5204 16.4404C15.1204 15.8404 15.4804 14.8804 15.4804 14.0404C15.4804 13.3204 15.2404 12.4804 14.6404 12.0004C14.0404 11.4004 13.4404 11.0404 12.7204 10.8004ZM12.0004 2.40039C6.72039 2.40039 2.40039 6.72039 2.40039 12.0004C2.40039 17.2804 6.72039 21.6004 12.0004 21.6004C17.2804 21.6004 21.6004 17.2804 21.6004 12.0004C21.6004 6.72039 17.2804 2.40039 12.0004 2.40039ZM12.0004 20.2804C7.44039 20.2804 3.72039 16.5604 3.72039 12.0004C3.72039 7.44039 7.44039 3.72039 12.0004 3.72039C16.5604 3.72039 20.2804 7.44039 20.2804 12.0004C20.2804 16.5604 16.5604 20.2804 12.0004 20.2804Z" fill="#7F868B"/>
</svg>
