<svg width="190" height="57" viewBox="0 0 190 57" fill="none" xmlns="http://www.w3.org/2000/svg">
<path d="M46.5977 38.2659C46.5908 38.2815 46.584 38.2971 46.5772 38.3127C46.5324 38.414 46.4866 38.5154 46.4398 38.6167C46.433 38.6303 46.4272 38.644 46.4203 38.6586C46.2713 38.9792 46.1134 39.2958 45.9478 39.6066C45.9458 39.6115 45.9429 39.6154 45.9409 39.6203C45.8883 39.7177 45.8357 39.8152 45.7821 39.9116C45.7714 39.9301 45.7617 39.9496 45.7509 39.9681C45.5249 40.3715 45.2842 40.7661 45.0309 41.151C45.0182 41.1705 45.0056 41.19 44.9929 41.2095C44.9344 41.2972 44.876 41.3839 44.8165 41.4706C44.8039 41.4891 44.7902 41.5086 44.7776 41.5271C44.5876 41.8019 44.3907 42.0708 44.1871 42.3358C44.1744 42.3514 44.1627 42.368 44.151 42.3836C44.0887 42.4635 44.0263 42.5424 43.963 42.6213C43.9425 42.6466 43.9221 42.6729 43.9016 42.6983C43.8383 42.7762 43.7749 42.8542 43.7106 42.9312C43.6989 42.9448 43.6873 42.9584 43.6756 42.9721C43.4661 43.2215 43.2517 43.4651 43.0305 43.7028C43.0042 43.7311 42.9779 43.7594 42.9516 43.7876C42.8883 43.8558 42.824 43.9231 42.7587 43.9903C42.7314 44.0185 42.7032 44.0478 42.6749 44.076C42.4625 44.2923 42.2462 44.5047 42.024 44.7113C41.9919 44.7415 41.9597 44.7717 41.9276 44.8009C41.8642 44.8594 41.7989 44.9179 41.7346 44.9754C41.6966 45.0095 41.6586 45.0426 41.6206 45.0757C41.5563 45.1322 41.492 45.1887 41.4277 45.2443C41.3907 45.2755 41.3537 45.3066 41.3166 45.3388C41.1958 45.4411 41.074 45.5415 40.9503 45.6408C40.9113 45.672 40.8733 45.7032 40.8343 45.7344C40.771 45.7841 40.7077 45.8328 40.6443 45.8825C40.5976 45.9185 40.5508 45.9546 40.504 45.9906C40.4417 46.0374 40.3793 46.0852 40.316 46.1309C40.2663 46.168 40.2156 46.204 40.1649 46.2411C40.1036 46.2859 40.0422 46.3307 39.9798 46.3745C39.897 46.433 39.8132 46.4915 39.7294 46.548C39.6534 46.5996 39.5764 46.6513 39.4995 46.7019C39.441 46.7409 39.3835 46.7789 39.325 46.8169C39.2646 46.8559 39.2052 46.8939 39.1438 46.9319C39.0844 46.9699 39.024 47.0069 38.9636 47.0439C38.9051 47.08 38.8457 47.117 38.7862 47.1521C38.7151 47.1949 38.643 47.2368 38.5709 47.2797C38.4939 47.3245 38.416 47.3694 38.338 47.4142C38.2542 47.4619 38.1704 47.5087 38.0857 47.5555C38.0301 47.5857 37.9736 47.6159 37.9171 47.6461C37.8469 47.6831 37.7778 47.7201 37.7066 47.7572C37.6501 47.7864 37.5926 47.8156 37.5361 47.8448C37.4611 47.8828 37.3851 47.9208 37.3091 47.9579C37.2584 47.9832 37.2078 48.0085 37.1561 48.0329C37.0353 48.0904 36.9145 48.1469 36.7927 48.2024C36.7459 48.2239 36.6992 48.2434 36.6534 48.2648C36.5696 48.3018 36.4848 48.3398 36.4 48.3759C36.3455 48.3993 36.2919 48.4217 36.2373 48.4441C36.1564 48.4782 36.0746 48.5113 35.9927 48.5444C35.9411 48.5649 35.8885 48.5863 35.8368 48.6068C35.7306 48.6487 35.6235 48.6886 35.5163 48.7286C35.4802 48.7422 35.4442 48.7559 35.4081 48.7685C35.2873 48.8124 35.1655 48.8553 35.0437 48.8972C34.995 48.9137 34.9453 48.9303 34.8966 48.9459C34.8069 48.9761 34.7163 49.0053 34.6267 49.0336C34.575 49.0501 34.5224 49.0667 34.4708 49.0823C34.3734 49.1125 34.2759 49.1407 34.1785 49.169C34.1366 49.1807 34.0947 49.1934 34.0528 49.206C33.9164 49.245 33.779 49.282 33.6416 49.3171C33.6036 49.3268 33.5656 49.3356 33.5276 49.3454C33.4234 49.3717 33.3191 49.397 33.2139 49.4223C33.1632 49.434 33.1135 49.4457 33.0628 49.4574C32.9644 49.4798 32.867 49.5013 32.7676 49.5217C32.7208 49.5315 32.6731 49.5422 32.6254 49.5509C32.4899 49.5782 32.3555 49.6045 32.219 49.6289C32.2103 49.6308 32.2015 49.6318 32.1927 49.6338C32.0485 49.6591 31.9043 49.6835 31.7592 49.7059C31.7134 49.7127 31.6676 49.7195 31.6208 49.7263C31.5175 49.7419 31.4133 49.7565 31.309 49.7702C31.2593 49.777 31.2096 49.7828 31.1609 49.7897C31.0488 49.8033 30.9358 49.816 30.8228 49.8286C30.7867 49.8325 30.7507 49.8364 30.7137 49.8403C30.5656 49.8549 30.4175 49.8686 30.2684 49.8803C30.2333 49.8832 30.1973 49.8852 30.1622 49.8871C30.0462 49.8959 29.9303 49.9027 29.8143 49.9095C29.7646 49.9124 29.7149 49.9144 29.6653 49.9173C29.5571 49.9222 29.4499 49.9261 29.3418 49.93C29.295 49.931 29.2492 49.9329 29.2024 49.9339C29.0504 49.9378 28.8984 49.9397 28.7464 49.9397C28.5915 49.9397 28.4376 49.9378 28.2826 49.9339C28.2329 49.9329 28.1842 49.9309 28.1355 49.929C28.0303 49.9261 27.9241 49.9222 27.8198 49.9173C27.7633 49.9144 27.7068 49.9115 27.6503 49.9085C27.5509 49.9027 27.4505 49.8968 27.3512 49.89C27.2956 49.8861 27.2401 49.8822 27.1845 49.8783C27.0754 49.8696 26.9663 49.8598 26.8581 49.8491C26.8153 49.8452 26.7714 49.8413 26.7285 49.8364C26.5804 49.8208 26.4323 49.8043 26.2852 49.7858C26.2433 49.7809 26.2014 49.7741 26.1595 49.7682C26.0523 49.7536 25.9461 49.739 25.8399 49.7234C25.7805 49.7146 25.722 49.7049 25.6626 49.6961C25.5729 49.6815 25.4843 49.6669 25.3946 49.6513C25.3323 49.6406 25.2699 49.6299 25.2076 49.6182C25.1208 49.6026 25.0341 49.5851 24.9474 49.5685C24.886 49.5568 24.8256 49.5451 24.7642 49.5324C24.6658 49.512 24.5684 49.4905 24.47 49.4681C24.3988 49.4525 24.3277 49.436 24.2576 49.4194C24.1455 49.3931 24.0344 49.3658 23.9234 49.3376C23.8561 49.321 23.7899 49.3025 23.7236 49.285C23.6496 49.2655 23.5745 49.245 23.5005 49.2245C23.4294 49.2051 23.3573 49.1836 23.2861 49.1632C23.2179 49.1437 23.1497 49.1232 23.0825 49.1027C23.0094 49.0803 22.9354 49.0579 22.8623 49.0345C22.7989 49.0141 22.7346 48.9936 22.6713 48.9722C22.5963 48.9478 22.5203 48.9235 22.4453 48.8972C22.3985 48.8816 22.3517 48.864 22.3049 48.8475C22.1432 48.7909 21.9824 48.7325 21.8236 48.6721C21.7749 48.6536 21.7272 48.636 21.6784 48.6165C21.5956 48.5844 21.5128 48.5513 21.43 48.5172C21.3813 48.4977 21.3325 48.4772 21.2838 48.4577C21.2 48.4226 21.1172 48.3876 21.0334 48.3515C20.9896 48.332 20.9447 48.3125 20.9009 48.2931C20.8142 48.2551 20.7275 48.2161 20.6407 48.1771C20.6125 48.1644 20.5852 48.1508 20.5579 48.1381C20.2481 47.9939 19.9421 47.8429 19.641 47.6831C19.6157 47.6695 19.5904 47.6558 19.5641 47.6432C19.4725 47.5944 19.3809 47.5438 19.2903 47.4941C19.261 47.4775 19.2318 47.4609 19.2026 47.4454C19.111 47.3937 19.0194 47.3411 18.9278 47.2885C18.9074 47.2768 18.8869 47.2641 18.8664 47.2515C18.4484 47.0059 18.0411 46.7448 17.6446 46.4691C17.628 46.4574 17.6105 46.4457 17.5939 46.434C17.5023 46.3697 17.4117 46.3054 17.3221 46.2401C17.3036 46.2274 17.286 46.2138 17.2685 46.2011C17.1749 46.1329 17.0824 46.0647 16.9908 45.9955L14.97 50.5428C18.8859 53.2311 23.6301 54.8076 28.7435 54.8076C39.8288 54.8076 49.1836 47.4025 52.133 37.2692C52.3191 36.63 52.4789 35.9801 52.6134 35.3204H47.6139C47.3528 36.3367 47.0118 37.3208 46.5977 38.2659Z" fill="#64BC17"/>
<path d="M23.897 30.4486L21.7319 35.3204H52.6133C52.8637 34.0878 53.0215 32.8212 53.078 31.5282V30.4486H23.897Z" fill="#64BC17"/>
<path d="M27.7935 28.7435H34.5653V2.24682L34.5896 2.19226H34.5653H27.7935H27.7691L4.38452 54.8076H11.205L27.7935 17.4838V28.7435Z" fill="#64BC17"/>
<path d="M34.5653 37.0256H27.7935V43.1154H34.5653V37.0256Z" fill="#64BC17"/>
<path d="M21.3618 12.4094L23.9613 6.5603C12.7981 8.78184 4.38452 18.6326 4.38452 30.4487C4.38452 35.0009 5.63462 39.2608 7.80842 42.9058L10.407 37.0587C9.66262 34.995 9.25632 32.7696 9.25632 30.4487C9.25632 22.2991 14.2597 15.3188 21.3618 12.4094Z" fill="#64BC17"/>
<path d="M36.2705 7.27551V12.4708C38.685 13.4832 40.8529 14.9671 42.6584 16.8077H48.9274C45.9176 12.3636 41.4785 8.96603 36.2705 7.27551Z" fill="#64BC17"/>
<path d="M72.3462 37.2284V19.7307H76.0452C76.9026 19.7307 77.668 19.775 78.3412 19.8618C79.0143 19.9486 79.6308 20.1329 80.1907 20.4128C80.9081 20.7795 81.4981 21.3269 81.9622 22.0532C82.4264 22.7796 82.6567 23.536 82.6567 24.3226C82.6567 25.0578 82.4901 25.7257 82.1589 26.3298C81.8258 26.9339 81.3457 27.3839 80.715 27.6815C81.677 27.9791 82.4157 28.4999 82.9313 29.2422C83.4468 29.9863 83.7054 30.865 83.7054 31.8783C83.7054 33.6268 82.9968 35.0175 81.5813 36.0503C80.9684 36.5056 80.1995 36.8281 79.273 37.0212C78.5732 37.1611 77.7335 37.2302 76.7538 37.2302H72.3462V37.2284ZM75.6253 26.4998H76.2295H76.7538C77.016 26.4998 77.3083 26.4733 77.6325 26.4219C77.9567 26.3688 78.2136 26.2997 78.4067 26.2129C78.722 26.0729 78.9665 25.8585 79.1419 25.5698C79.3173 25.281 79.4041 24.9621 79.4041 24.6131C79.4041 23.8779 79.0374 23.3536 78.3022 23.0382C78.1977 22.9851 78.0435 22.9514 77.8433 22.9337C77.6414 22.916 77.4536 22.9071 77.28 22.9071H75.6271V26.4998H75.6253ZM75.6253 34.0556H76.9363C77.5475 34.0556 78.0471 34.0201 78.4315 33.951C78.8159 33.8819 79.2181 33.7154 79.6379 33.4532C80.1977 33.0511 80.4777 32.4824 80.4777 31.7472C80.4777 30.9961 80.0844 30.4008 79.2978 29.9633C79.0888 29.841 78.8 29.7542 78.4315 29.7011C78.0648 29.6479 77.7406 29.6231 77.4607 29.6231H75.6253V34.0556Z" fill="black"/>
<path d="M86.3025 37.2284V19.7307H98.8948V22.9054H89.5817V26.9197H98.8948V30.0412H89.5817V34.0556H98.8948V37.2302H86.3025V37.2284Z" fill="black"/>
<path d="M118.742 25.0649H115.009C114.522 24.3686 113.879 23.8159 113.08 23.4084C112.281 23.001 111.453 22.7955 110.596 22.7955C109.099 22.7955 107.797 23.2827 106.688 24.2552C106.116 24.7761 105.653 25.4085 105.301 26.1544C104.948 26.9002 104.771 27.6761 104.771 28.4822C104.771 29.1873 104.915 29.8782 105.2 30.5585C105.485 31.237 105.871 31.8464 106.36 32.3832C106.931 32.9696 107.595 33.4231 108.351 33.742C109.108 34.0608 109.898 34.2203 110.722 34.2203C111.73 34.2203 112.688 33.9492 113.597 33.4071C114.504 32.865 115.186 32.1529 115.64 31.2689H108.605V28.3174H119.548V28.693C119.548 31.1006 118.674 33.1308 116.926 34.7854C115.177 36.4418 113.083 37.2691 110.646 37.2691C108.174 37.2691 106.057 36.4294 104.291 34.7517C102.527 33.0741 101.643 31.0084 101.643 28.5584C101.643 26.1242 102.525 24.0515 104.291 22.3384C106.056 20.6253 108.157 19.7697 110.594 19.7697C112.343 19.7697 113.976 20.2515 115.498 21.2135C117.022 22.1772 118.102 23.4598 118.742 25.0649Z" fill="black"/>
<path d="M120.749 37.2284L128.042 19.7307H130.535L137.906 37.2284H134.312L132.423 32.6897H126.232L124.29 37.2284H120.749ZM127.412 29.5682H131.164L129.302 24.2695L127.412 29.5682Z" fill="black"/>
<path d="M139.664 37.2284V19.7307H144.123L148.793 33.1095L153.516 19.7307H157.923V37.2284H154.696L154.687 24.1348L150.15 37.2267L147.425 37.2302L142.939 24.1384L142.943 37.2284H139.664Z" fill="black"/>
<path d="M168.127 19.7432C170.29 19.7432 172.138 20.5988 173.672 22.3119C175.207 24.025 175.974 26.0978 175.974 28.5301C175.974 30.9483 175.203 33.0033 173.66 34.6987C172.117 36.3941 170.274 37.2409 168.129 37.2409C165.95 37.2409 164.093 36.3976 162.559 34.7111C161.025 33.0246 160.258 30.9642 160.258 28.5301C160.258 26.08 161.02 24.002 162.547 22.2978C164.07 20.5953 165.931 19.7432 168.127 19.7432ZM168.127 22.7849C166.719 22.7849 165.525 23.3359 164.545 24.436C163.564 25.5362 163.075 26.8755 163.075 28.4557C163.075 30.0182 163.569 31.3699 164.558 32.5126C165.546 33.6552 166.737 34.2257 168.127 34.2257C169.484 34.2257 170.671 33.6499 171.685 32.5002C172.698 31.3487 173.206 30.0005 173.206 28.4557C173.206 26.8932 172.712 25.5574 171.724 24.4502C170.733 23.3394 169.536 22.7849 168.127 22.7849Z" fill="black"/>
<path d="M178.491 37.2284V19.7307H182.19C183.047 19.7307 183.813 19.775 184.486 19.8618C185.159 19.9486 185.776 20.1329 186.335 20.4128C187.053 20.7795 187.643 21.3269 188.107 22.0532C188.571 22.7796 188.801 23.536 188.801 24.3226C188.801 25.0578 188.635 25.7257 188.304 26.3298C187.971 26.9339 187.491 27.3839 186.86 27.6815C187.822 27.9791 188.561 28.4999 189.076 29.2422C189.592 29.9863 189.85 30.865 189.85 31.8783C189.85 33.6268 189.142 35.0175 187.726 36.0503C187.113 36.5056 186.344 36.8281 185.418 37.0212C184.718 37.1611 183.878 37.2302 182.899 37.2302H178.491V37.2284ZM181.77 26.4998H182.374H182.899C183.161 26.4998 183.453 26.4733 183.777 26.4219C184.102 26.3688 184.358 26.2997 184.551 26.2129C184.867 26.0729 185.111 25.8585 185.287 25.5698C185.462 25.281 185.549 24.9621 185.549 24.6131C185.549 23.8779 185.182 23.3536 184.447 23.0382C184.342 22.9851 184.188 22.9514 183.988 22.9337C183.786 22.916 183.598 22.9071 183.425 22.9071H181.772V26.4998H181.77ZM181.77 34.0556H183.081C183.692 34.0556 184.192 34.0201 184.576 33.951C184.961 33.8819 185.363 33.7154 185.783 33.4532C186.343 33.0511 186.622 32.4824 186.622 31.7472C186.622 30.9961 186.229 30.4008 185.443 29.9633C185.234 29.841 184.945 29.7542 184.576 29.7011C184.21 29.6479 183.885 29.6231 183.605 29.6231H181.768V34.0556H181.77Z" fill="black"/>
</svg>
