<svg width="174" height="53" viewBox="0 0 174 53" fill="none" xmlns="http://www.w3.org/2000/svg">
<path d="M42.5102 35.254C42.504 35.2682 42.4978 35.2824 42.4915 35.2967C42.4506 35.3891 42.4089 35.4816 42.3662 35.574C42.36 35.5864 42.3546 35.5989 42.3484 35.6122C42.2124 35.9047 42.0684 36.1936 41.9173 36.4771C41.9155 36.4816 41.9129 36.4851 41.9111 36.4896C41.8631 36.5785 41.8151 36.6673 41.7662 36.7553C41.7564 36.7722 41.7475 36.79 41.7377 36.8069C41.5315 37.1749 41.312 37.5349 41.0809 37.886C41.0693 37.9038 41.0578 37.9216 41.0462 37.9393C40.9929 38.0193 40.9395 38.0984 40.8853 38.1776C40.8738 38.1944 40.8613 38.2122 40.8497 38.2291C40.6764 38.4798 40.4969 38.7251 40.3111 38.9669C40.2995 38.9811 40.2889 38.9962 40.2782 39.0104C40.2213 39.0833 40.1644 39.1553 40.1066 39.2273C40.088 39.2504 40.0693 39.2745 40.0506 39.2976C39.9929 39.3687 39.9351 39.4398 39.8764 39.51C39.8657 39.5224 39.8551 39.5349 39.8444 39.5473C39.6533 39.7749 39.4577 39.9971 39.256 40.214C39.232 40.2398 39.208 40.2656 39.184 40.2913C39.1262 40.3536 39.0675 40.4149 39.008 40.4762C38.9831 40.502 38.9573 40.5287 38.9315 40.5544C38.7378 40.7518 38.5404 40.9456 38.3377 41.134C38.3084 41.1616 38.2791 41.1891 38.2497 41.2158C38.192 41.2691 38.1324 41.3224 38.0737 41.3749C38.0391 41.406 38.0044 41.4362 37.9698 41.4664C37.9111 41.518 37.8524 41.5696 37.7937 41.6202C37.76 41.6487 37.7262 41.6771 37.6924 41.7065C37.5822 41.7998 37.4711 41.8913 37.3582 41.982C37.3226 42.0105 37.288 42.0389 37.2524 42.0673C37.1946 42.1127 37.1369 42.1571 37.0791 42.2024C37.0364 42.2353 36.9937 42.2682 36.9511 42.3011C36.8942 42.3438 36.8373 42.3873 36.7795 42.4291C36.7342 42.4629 36.688 42.4958 36.6418 42.5296C36.5858 42.5704 36.5297 42.6113 36.4729 42.6513C36.3973 42.7047 36.3209 42.758 36.2444 42.8096C36.1751 42.8567 36.1049 42.9038 36.0346 42.95C35.9813 42.9856 35.9289 43.0202 35.8755 43.0549C35.8204 43.0904 35.7662 43.1251 35.7102 43.1598C35.656 43.1945 35.6009 43.2282 35.5458 43.262C35.4924 43.2949 35.4382 43.3287 35.384 43.3607C35.3191 43.3998 35.2533 43.438 35.1875 43.4771C35.1173 43.518 35.0462 43.5589 34.9751 43.5998C34.8986 43.6433 34.8222 43.686 34.7449 43.7287C34.6942 43.7562 34.6426 43.7838 34.5911 43.8113C34.5271 43.8451 34.464 43.8789 34.3991 43.9127C34.3475 43.9393 34.2951 43.966 34.2435 43.9927C34.1751 44.0273 34.1058 44.062 34.0364 44.0958C33.9902 44.1189 33.944 44.142 33.8969 44.1642C33.7866 44.2167 33.6764 44.2682 33.5653 44.3189C33.5226 44.3384 33.48 44.3562 33.4382 44.3758C33.3617 44.4096 33.2844 44.4442 33.2071 44.4771C33.1573 44.4984 33.1084 44.5189 33.0586 44.5393C32.9849 44.5705 32.9102 44.6007 32.8355 44.6309C32.7884 44.6496 32.7404 44.6691 32.6933 44.6878C32.5964 44.726 32.4986 44.7624 32.4009 44.7989C32.368 44.8113 32.3351 44.8238 32.3022 44.8353C32.192 44.8753 32.0809 44.9144 31.9697 44.9527C31.9253 44.9678 31.88 44.9829 31.8355 44.9971C31.7537 45.0247 31.6711 45.0513 31.5893 45.0771C31.5422 45.0922 31.4942 45.1073 31.4471 45.1216C31.3582 45.1491 31.2693 45.1749 31.1804 45.2007C31.1422 45.2113 31.104 45.2229 31.0657 45.2345C30.9413 45.27 30.816 45.3038 30.6906 45.3358C30.656 45.3447 30.6213 45.3527 30.5866 45.3616C30.4915 45.3856 30.3964 45.4087 30.3004 45.4318C30.2542 45.4425 30.2089 45.4531 30.1626 45.4638C30.0729 45.4842 29.984 45.5038 29.8933 45.5225C29.8506 45.5313 29.8071 45.5411 29.7635 45.5491C29.64 45.574 29.5173 45.598 29.3929 45.6202C29.3849 45.622 29.3769 45.6229 29.3689 45.6247C29.2373 45.6478 29.1058 45.67 28.9733 45.6905C28.9315 45.6967 28.8897 45.7029 28.8471 45.7091C28.7529 45.7233 28.6577 45.7367 28.5626 45.7491C28.5173 45.7553 28.472 45.7607 28.4275 45.7669C28.3253 45.7793 28.2222 45.7909 28.1191 45.8025C28.0862 45.806 28.0533 45.8096 28.0195 45.8131C27.8844 45.8264 27.7493 45.8389 27.6133 45.8496C27.5813 45.8522 27.5484 45.854 27.5164 45.8558C27.4106 45.8638 27.3049 45.87 27.1991 45.8762C27.1537 45.8789 27.1084 45.8807 27.0631 45.8833C26.9644 45.8878 26.8666 45.8913 26.768 45.8949C26.7253 45.8958 26.6835 45.8976 26.6409 45.8985C26.5022 45.902 26.3635 45.9038 26.2249 45.9038C26.0835 45.9038 25.9431 45.902 25.8018 45.8985C25.7564 45.8976 25.712 45.8958 25.6675 45.894C25.5715 45.8913 25.4746 45.8878 25.3795 45.8833C25.328 45.8807 25.2764 45.878 25.2249 45.8753C25.1342 45.87 25.0426 45.8647 24.952 45.8584C24.9013 45.8549 24.8506 45.8513 24.8 45.8478C24.7004 45.8398 24.6009 45.8309 24.5022 45.8211C24.4631 45.8176 24.4231 45.814 24.384 45.8096C24.2489 45.7953 24.1137 45.7802 23.9795 45.7633C23.9413 45.7589 23.9031 45.7527 23.8649 45.7473C23.7671 45.734 23.6702 45.7207 23.5733 45.7065C23.5191 45.6985 23.4657 45.6896 23.4115 45.6816C23.3298 45.6682 23.2489 45.6549 23.1671 45.6407C23.1102 45.6309 23.0533 45.6211 22.9964 45.6104C22.9173 45.5962 22.8382 45.5802 22.7591 45.5651C22.7031 45.5545 22.648 45.5438 22.592 45.5322C22.5022 45.5136 22.4133 45.494 22.3235 45.4736C22.2586 45.4593 22.1938 45.4442 22.1298 45.4291C22.0275 45.4051 21.9262 45.3802 21.8249 45.3544C21.7635 45.3393 21.7031 45.3225 21.6426 45.3065C21.5751 45.2887 21.5066 45.27 21.4391 45.2513C21.3742 45.2336 21.3084 45.214 21.2435 45.1953C21.1813 45.1776 21.1191 45.1589 21.0577 45.1402C20.9911 45.1198 20.9235 45.0993 20.8569 45.078C20.7991 45.0593 20.7404 45.0407 20.6826 45.0211C20.6142 44.9989 20.5449 44.9767 20.4764 44.9527C20.4337 44.9384 20.3911 44.9224 20.3484 44.9073C20.2009 44.8558 20.0542 44.8025 19.9093 44.7473C19.8649 44.7305 19.8213 44.7144 19.7769 44.6967C19.7013 44.6673 19.6257 44.6371 19.5502 44.606C19.5057 44.5882 19.4613 44.5696 19.4169 44.5518C19.3404 44.5198 19.2649 44.4878 19.1884 44.4549C19.1484 44.4371 19.1075 44.4193 19.0675 44.4016C18.9884 44.3669 18.9093 44.3313 18.8302 44.2958C18.8044 44.2842 18.7795 44.2718 18.7546 44.2602C18.472 44.1287 18.1929 43.9909 17.9182 43.8451C17.8951 43.8327 17.872 43.8202 17.848 43.8087C17.7644 43.7642 17.6809 43.718 17.5982 43.6727C17.5715 43.6576 17.5449 43.6425 17.5182 43.6282C17.4346 43.5811 17.3511 43.5331 17.2675 43.4851C17.2489 43.4744 17.2302 43.4629 17.2115 43.4513C16.8302 43.2273 16.4586 42.9891 16.0969 42.7376C16.0817 42.7269 16.0658 42.7162 16.0506 42.7056C15.9671 42.6469 15.8844 42.5882 15.8026 42.5287C15.7857 42.5171 15.7697 42.5047 15.7537 42.4931C15.6684 42.4309 15.584 42.3687 15.5004 42.3056L13.6569 46.454C17.2293 48.9065 21.5573 50.3447 26.2222 50.3447C36.3351 50.3447 44.8693 43.5891 47.56 34.3447C47.7297 33.7616 47.8755 33.1687 47.9982 32.5669H43.4373C43.1991 33.494 42.888 34.3918 42.5102 35.254Z" fill="#64BC17"/>
<path d="M21.8009 28.1226L19.8258 32.567H47.9983C48.2267 31.4426 48.3707 30.287 48.4223 29.1074V28.1226H21.8009Z" fill="#64BC17"/>
<path d="M25.3556 26.5669H31.5333V2.3945L31.5556 2.34473H31.5333H25.3556H25.3333L4 50.3447H10.2222L25.3556 16.2949V26.5669Z" fill="#64BC17"/>
<path d="M31.5334 34.1226H25.3556V39.6781H31.5334V34.1226Z" fill="#64BC17"/>
<path d="M19.488 11.6656L21.8596 6.32959C11.6756 8.35626 4 17.3429 4 28.1225C4 32.2754 5.14044 36.1616 7.12356 39.4869L9.49422 34.1527C8.81511 32.27 8.44444 30.2398 8.44444 28.1225C8.44444 20.6878 13.0089 14.3198 19.488 11.6656Z" fill="#64BC17"/>
<path d="M33.0889 6.98193V11.7215C35.2915 12.645 37.2693 13.9988 38.9164 15.6779H44.6355C41.8898 11.6237 37.84 8.52416 33.0889 6.98193Z" fill="#64BC17"/>
<path d="M66 34.3076V18.3447H69.3745C70.1568 18.3447 70.8549 18.3851 71.4691 18.4643C72.0832 18.5435 72.6457 18.7116 73.1564 18.9669C73.8109 19.3015 74.3491 19.8009 74.7725 20.4635C75.196 21.1261 75.4061 21.8162 75.4061 22.5338C75.4061 23.2045 75.2541 23.8138 74.9519 24.3649C74.6481 24.916 74.2101 25.3265 73.6347 25.5981C74.5123 25.8696 75.1863 26.3447 75.6566 27.0219C76.1269 27.7007 76.3628 28.5023 76.3628 29.4267C76.3628 31.0219 75.7164 32.2906 74.425 33.2328C73.8659 33.6482 73.1644 33.9423 72.3192 34.1185C71.6808 34.2461 70.9147 34.3092 70.021 34.3092H66V34.3076ZM68.9915 24.5201H69.5426H70.021C70.2602 24.5201 70.5269 24.4958 70.8226 24.449C71.1184 24.4005 71.3527 24.3375 71.5289 24.2583C71.8166 24.1306 72.0396 23.935 72.1996 23.6716C72.3596 23.4082 72.4388 23.1173 72.4388 22.7989C72.4388 22.1282 72.1042 21.6498 71.4335 21.3621C71.3382 21.3136 71.1976 21.2829 71.0149 21.2667C70.8307 21.2506 70.6594 21.2425 70.501 21.2425H68.9931V24.5201H68.9915ZM68.9915 31.413H70.1875C70.745 31.413 71.2008 31.3807 71.5515 31.3177C71.9022 31.2546 72.2691 31.1027 72.6521 30.8635C73.1628 30.4966 73.4182 29.9779 73.4182 29.3072C73.4182 28.6219 73.0594 28.0789 72.3418 27.6797C72.1511 27.5682 71.8877 27.489 71.5515 27.4405C71.217 27.392 70.9212 27.3694 70.6659 27.3694H68.9915V31.413Z" fill="white"/>
<path d="M78.7322 34.3076V18.3447H90.2198V21.2409H81.7237V24.9031H90.2198V27.7508H81.7237V31.413H90.2198V34.3092H78.7322V34.3076Z" fill="white"/>
<path d="M108.326 23.2111H104.92C104.476 22.5759 103.889 22.0717 103.16 21.7C102.431 21.3283 101.677 21.1408 100.895 21.1408C99.5289 21.1408 98.341 21.5852 97.3293 22.4725C96.8073 22.9476 96.3854 23.5246 96.0638 24.205C95.7422 24.8854 95.5806 25.5933 95.5806 26.3287C95.5806 26.9719 95.7115 27.6022 95.9717 28.2228C96.2319 28.8418 96.5842 29.3977 97.0303 29.8874C97.5507 30.4224 98.1567 30.8361 98.8468 31.127C99.5369 31.4179 100.258 31.5634 101.009 31.5634C101.929 31.5634 102.803 31.3161 103.632 30.8216C104.46 30.327 105.082 29.6773 105.496 28.8709H99.078V26.1784H109.061V26.521C109.061 28.7173 108.264 30.5695 106.669 32.079C105.074 33.5901 103.164 34.3448 100.94 34.3448C98.6852 34.3448 96.7539 33.5788 95.1426 32.0483C93.5329 30.5177 92.7264 28.6333 92.7264 26.3982C92.7264 24.1775 93.5313 22.2866 95.1426 20.7238C96.7523 19.161 98.6691 18.3804 100.893 18.3804C102.488 18.3804 103.978 18.82 105.366 19.6975C106.756 20.5767 107.742 21.7468 108.326 23.2111Z" fill="white"/>
<path d="M110.157 34.3075L116.81 18.3447H119.084L125.809 34.3075H122.53L120.807 30.1669H115.159L113.387 34.3075H110.157ZM116.235 27.3193H119.658L117.96 22.4853L116.235 27.3193Z" fill="white"/>
<path d="M127.412 34.3076V18.3447H131.48L135.741 30.55L140.049 18.3447H144.07V34.3076H141.126L141.118 22.3625L136.979 34.3059L134.493 34.3092L130.401 22.3657L130.404 34.3076H127.412Z" fill="white"/>
<path d="M153.379 18.356C155.353 18.356 157.038 19.1366 158.438 20.6994C159.838 22.2622 160.537 24.1531 160.537 26.3721C160.537 28.5782 159.834 30.4529 158.427 31.9996C157.019 33.5463 155.338 34.3188 153.381 34.3188C151.393 34.3188 149.699 33.5495 148.3 32.0109C146.9 30.4723 146.2 28.5927 146.2 26.3721C146.2 24.137 146.895 22.2412 148.289 20.6865C149.678 19.1333 151.375 18.356 153.379 18.356ZM153.379 21.1309C152.095 21.1309 151.005 21.6335 150.112 22.6372C149.216 23.6408 148.77 24.8626 148.77 26.3042C148.77 27.7297 149.221 28.9628 150.123 30.0052C151.025 31.0477 152.111 31.5681 153.379 31.5681C154.617 31.5681 155.7 31.0428 156.625 29.9939C157.549 28.9434 158.013 27.7135 158.013 26.3042C158.013 24.8788 157.562 23.6602 156.66 22.6501C155.757 21.6368 154.664 21.1309 153.379 21.1309Z" fill="white"/>
<path d="M162.834 34.3076V18.3447H166.209C166.991 18.3447 167.689 18.3851 168.303 18.4643C168.917 18.5435 169.48 18.7116 169.99 18.9669C170.645 19.3015 171.183 19.8009 171.607 20.4635C172.03 21.1261 172.24 21.8162 172.24 22.5338C172.24 23.2045 172.088 23.8138 171.786 24.3649C171.482 24.916 171.044 25.3265 170.469 25.5981C171.346 25.8696 172.02 26.3447 172.491 27.0219C172.961 27.7007 173.197 28.5023 173.197 29.4267C173.197 31.0219 172.55 32.2906 171.259 33.2328C170.7 33.6482 169.998 33.9423 169.153 34.1185C168.515 34.2461 167.749 34.3092 166.855 34.3092H162.834V34.3076ZM165.826 24.5201H166.377H166.855C167.094 24.5201 167.361 24.4958 167.657 24.449C167.952 24.4005 168.187 24.3375 168.363 24.2583C168.651 24.1306 168.874 23.935 169.034 23.6716C169.194 23.4082 169.273 23.1173 169.273 22.7989C169.273 22.1282 168.938 21.6498 168.268 21.3621C168.172 21.3136 168.032 21.2829 167.849 21.2667C167.665 21.2506 167.493 21.2425 167.335 21.2425H165.827V24.5201H165.826ZM165.826 31.413H167.021C167.579 31.413 168.035 31.3807 168.386 31.3177C168.736 31.2546 169.103 31.1027 169.486 30.8635C169.997 30.4966 170.252 29.9779 170.252 29.3072C170.252 28.6219 169.893 28.0789 169.176 27.6797C168.985 27.5682 168.722 27.489 168.386 27.4405C168.051 27.392 167.755 27.3694 167.5 27.3694H165.824V31.413H165.826Z" fill="white"/>
</svg>
