<svg width="72" height="72" viewBox="0 0 72 72" fill="none" xmlns="http://www.w3.org/2000/svg">
<g clip-path="url(#clip0_106_718)">
<path d="M24.8864 31.2188H47.1139C48.3216 31.2188 49.4405 30.673 50.1842 29.7214C50.9278 28.7698 51.1865 27.5518 50.8943 26.38L49.2344 19.7229C48.4389 16.5324 46.0547 14.0865 43.0494 13.137C43.9413 11.7968 44.4624 10.1894 44.4624 8.46225C44.4624 3.79617 40.6662 0 36.0002 0C31.3341 0 27.5379 3.79617 27.5379 8.46239C27.5379 10.1895 28.0591 11.7968 28.9509 13.1372C25.9456 14.0867 23.5615 16.5326 22.7659 19.7231L21.106 26.3801C20.8138 27.552 21.0727 28.7698 21.8162 29.7215C22.5596 30.6733 23.6787 31.2188 24.8864 31.2188ZM36.0002 4.21875C38.34 4.21875 40.2437 6.12239 40.2437 8.46239C40.2437 10.8022 38.34 12.7059 36.0002 12.7059C33.6603 12.7059 31.7567 10.8022 31.7567 8.46239C31.7567 6.12239 33.6603 4.21875 36.0002 4.21875ZM26.8593 20.7436C27.4199 18.495 29.43 16.9246 31.7472 16.9246H40.253C42.5703 16.9246 44.5803 18.495 45.1409 20.7436L46.701 27H25.2993L26.8593 20.7436Z" fill="#64BC17"/>
<path d="M71.9469 21.3992C71.9394 18.1865 69.5316 15.4506 66.3462 15.0352C64.511 14.7953 62.6607 15.359 61.2699 16.58C59.8791 17.8013 59.0815 19.5631 59.0815 21.4138L59.0816 31.6641C58.949 31.6557 58.8154 31.6515 58.6814 31.6515C57.0159 31.6515 55.45 32.3 54.2724 33.4778L48.7426 39.0074C48.6886 39.0613 48.6137 39.0869 48.5383 39.0786C48.5 39.0742 48.4618 39.0709 48.4233 39.0686L45.9432 38.9204C43.8844 38.7026 41.8668 39.415 40.4 40.8814L36.9799 44.3017C36.6238 44.6576 36.2979 45.0355 36.0002 45.4305C35.7025 45.0353 35.3764 44.6576 35.0204 44.3017L31.6001 40.8813C30.1336 39.415 28.1167 38.7027 26.0571 38.9204L23.5771 39.0686C23.5387 39.071 23.5003 39.0742 23.462 39.0786C23.3854 39.0872 23.3117 39.0613 23.2577 39.0076L17.7279 33.4778C16.5502 32.3 14.9845 31.6515 13.3189 31.6515C13.1849 31.6515 13.0513 31.6557 12.9187 31.6641L12.9188 21.4138C12.9188 19.5631 12.1213 17.8013 10.7304 16.58C9.33963 15.3587 7.48943 14.7952 5.65413 15.0352C2.46855 15.4506 0.0607729 18.1865 0.0533198 21.3992L2.28896e-05 44.6493C-0.00546149 47.0743 0.974835 49.4486 2.68948 51.1632L16.1719 64.6455V68.4844C16.1719 70.4229 17.749 72 19.6875 72H34.5938C35.0937 72 35.569 71.8944 36 71.7056C36.431 71.8944 36.9063 72 37.4063 72H52.3125C54.251 72 55.8281 70.4229 55.8281 68.4844V64.6455L69.3106 51.1632C71.0252 49.4486 72.0055 47.0743 72 44.6493L71.9469 21.3992ZM66.3275 48.1801L52.2273 62.2803C51.8317 62.6759 51.6094 63.2124 51.6094 63.7718V67.7813H38.1094V51.7597C38.1094 50.0693 38.7677 48.4802 39.963 47.285L43.3831 43.8649C43.9489 43.2992 44.729 43.0268 45.5236 43.1186C45.562 43.123 45.6003 43.1265 45.639 43.1287L48.123 43.2771C49.4622 43.4124 50.7718 42.9447 51.7258 41.9909L57.2556 36.4611C58.042 35.6752 59.3211 35.6749 60.1075 36.4611C60.8937 37.2475 60.8937 38.5266 60.1075 39.313L52.2274 47.1931C51.4037 48.0167 51.4037 49.3524 52.2274 50.1762C53.0511 50.9998 54.3867 50.9998 55.2105 50.1762L63.0906 42.2961C64.2683 41.1184 64.9169 39.5525 64.9169 37.8869C64.9169 36.3233 64.3452 34.8475 63.3007 33.6983L63.3005 21.4141C63.3005 20.7677 63.568 20.1769 64.0536 19.7505C64.5393 19.324 65.1596 19.1357 65.8008 19.2188C66.8972 19.3618 67.7257 20.3035 67.7284 21.4091L67.7813 44.6589C67.7842 45.9698 67.2543 47.2533 66.3275 48.1801ZM5.6727 48.1801C4.74584 47.2531 4.21596 45.9696 4.21891 44.6589L4.27207 21.4089C4.2746 20.3032 5.1033 19.3614 6.19962 19.2185C6.84073 19.1353 7.46102 19.3237 7.94674 19.7503C8.43246 20.1766 8.69979 20.7674 8.69979 21.4138L8.69965 33.698C7.65509 34.8472 7.08344 36.323 7.08344 37.8867C7.08344 39.5522 7.73201 41.1181 8.90974 42.2958L16.7898 50.1759C17.6134 50.9995 18.9491 50.9995 19.7729 50.1759C20.5967 49.3522 20.5967 48.0166 19.7729 47.1928L11.8927 39.3129C11.1064 38.5265 11.1064 37.2474 11.8927 36.461C12.6791 35.6749 13.9582 35.6751 14.7446 36.461L20.2745 41.9909C21.2282 42.9447 22.5376 43.4124 23.8772 43.2771L26.3612 43.1287C26.3997 43.1263 26.4382 43.123 26.4766 43.1186C27.2707 43.0276 28.0513 43.2992 28.6169 43.8648L32.0372 47.285C33.2325 48.4802 33.8906 50.0694 33.8906 51.7597V67.7813H20.3906V63.7718C20.3906 63.2122 20.1683 62.6758 19.7727 62.2803L5.6727 48.1801Z" fill="#64BC17"/>
</g>
<defs>
<clipPath id="clip0_106_718">
<rect width="72" height="72" fill="white"/>
</clipPath>
</defs>
</svg>
