<svg width="72" height="72" viewBox="0 0 72 72" fill="none" xmlns="http://www.w3.org/2000/svg">
<g clip-path="url(#clip0_106_698)">
<path d="M37.2385 2.47752C31.6765 2.47752 26.1933 3.81759 21.2792 6.36439L15.5334 0.618297C15.0252 0.10984 14.293 -0.105033 13.5907 0.0478845C12.8883 0.200802 12.3119 0.700529 12.0608 1.37415L9.15933 9.15928L1.37434 12.0606C0.700718 12.3117 0.20099 12.8882 0.048073 13.5905C-0.104704 14.2929 0.110028 15.0249 0.618486 15.5332L6.36443 21.2793C3.81764 26.1932 2.47757 31.6764 2.47757 37.2385C2.47757 56.4058 18.0712 71.9996 37.2385 71.9996C56.4059 71.9996 71.9998 56.4058 71.9998 37.2385C71.9998 18.0712 56.4059 2.47752 37.2385 2.47752ZM37.2385 48.6788C43.5469 48.6788 48.679 43.5468 48.679 37.2385C48.679 30.9302 43.5469 25.7981 37.2385 25.7981C34.8459 25.7981 32.6236 26.5376 30.7853 27.7983L25.4745 22.4874C28.7033 19.9073 32.7937 18.3619 37.2385 18.3619C47.6471 18.3619 56.1151 26.83 56.1151 37.2385C56.1151 47.647 47.6471 56.115 37.2385 56.115C26.83 56.115 18.3621 47.647 18.3621 37.2385C18.3621 32.7936 19.9073 28.7033 22.4875 25.4744L27.7984 30.7853C26.5377 32.6235 25.7982 34.8459 25.7982 37.2385C25.7982 43.5467 30.9303 48.6788 37.2385 48.6788ZM38.7321 35.7449L33.8545 30.8673C34.8645 30.3288 36.0163 30.0222 37.2385 30.0222C41.2176 30.0222 44.4548 33.2594 44.4548 37.2383C44.4548 41.2173 41.2176 44.4545 37.2385 44.4545C33.2596 44.4545 30.0224 41.2173 30.0224 37.2383C30.0224 36.016 30.329 34.8645 30.8675 33.8543L35.7451 38.7319C36.1576 39.1443 36.6981 39.3505 37.2385 39.3505C37.7791 39.3505 38.3197 39.1442 38.7319 38.7319C39.5569 37.9072 39.5569 36.5698 38.7321 35.7449ZM14.8711 5.92985L21.9785 13.0374L21.0648 18.0776L13.2544 10.2674L14.8711 5.92985ZM5.93004 14.8709L10.2676 13.2544L18.078 21.0646L13.0376 21.9784L5.93004 14.8709ZM37.2385 67.7754C20.4006 67.7754 6.70181 54.0766 6.70181 37.2385C6.70181 32.806 7.67085 28.4314 9.52092 24.4357L10.8326 25.7473C11.2322 26.147 11.7709 26.366 12.326 26.366C12.4511 26.366 12.5772 26.3549 12.7028 26.3322L17.3572 25.4885C15.3135 28.9334 14.138 32.9509 14.138 37.2385C14.138 49.9762 24.5009 60.3393 37.2387 60.3393C49.9764 60.3393 60.3395 49.9762 60.3395 37.2385C60.3395 24.5007 49.9764 14.1377 37.2387 14.1377C32.9511 14.1377 28.9335 15.3133 25.4887 17.357L26.3324 12.7026C26.4559 12.0211 26.2374 11.3221 25.7476 10.8324L24.436 9.52073C28.4316 7.67066 32.8062 6.70162 37.2388 6.70162C54.0769 6.70162 67.7757 20.4004 67.7757 37.2383C67.7755 54.0766 54.0766 67.7754 37.2385 67.7754Z" fill="#64BC17"/>
</g>
<defs>
<clipPath id="clip0_106_698">
<rect width="72" height="72" fill="white"/>
</clipPath>
</defs>
</svg>
