<svg width="72" height="72" viewBox="0 0 72 72" fill="none" xmlns="http://www.w3.org/2000/svg">
<g clip-path="url(#clip0_106_666)">
<path d="M46.6043 0C32.5957 0 21.1991 11.3937 21.1991 25.3987C21.1991 30.0278 22.445 34.3711 24.618 38.1125L1.9296 60.7951C-0.630992 63.3549 -0.630992 67.5202 1.9296 70.08C3.20975 71.36 4.89149 72 6.57309 72C8.25469 72 9.93657 71.3602 11.2166 70.08L33.9097 47.3926C37.6469 49.557 41.9832 50.7973 46.604 50.7973C60.6125 50.7973 72.0092 39.4034 72.0092 25.3986C72.0092 11.3937 60.6128 0 46.6043 0ZM8.23007 67.0942C7.31634 68.0077 5.82984 68.0077 4.91625 67.0943C4.00265 66.1809 4.00265 64.6947 4.91625 63.7812L6.34044 62.3573L9.65426 65.6703L8.23007 67.0942ZM12.6409 62.6846L9.32708 59.3716L11.6146 57.0846L14.9285 60.3977L12.6409 62.6846ZM17.915 57.4117L14.6012 54.0986L27.0764 41.6265C28.0779 42.829 29.188 43.9381 30.3917 44.9381L17.915 57.4117ZM46.6043 46.5746C34.9248 46.5746 25.423 37.0751 25.423 25.3987C25.423 13.7223 34.9248 4.22283 46.6043 4.22283C58.2838 4.22283 67.7855 13.7222 67.7855 25.3987C67.7855 37.0752 58.2838 46.5746 46.6043 46.5746Z" fill="#64BC17"/>
<path d="M57.784 23.0225C56.6179 23.0225 55.6726 23.9677 55.6726 25.1338V34.3087C55.6726 35.4748 56.6179 36.4201 57.784 36.4201C58.95 36.4201 59.8953 35.4748 59.8953 34.3087V25.1338C59.8953 23.9676 58.9499 23.0225 57.784 23.0225Z" fill="#64BC17"/>
<path d="M50.7974 13.595C49.6313 13.595 48.686 14.5403 48.686 15.7063V34.3086C48.686 35.4747 49.6313 36.42 50.7974 36.42C51.9634 36.42 52.9087 35.4747 52.9087 34.3086V15.7063C52.9089 14.5403 51.9634 13.595 50.7974 13.595Z" fill="#64BC17"/>
<path d="M43.7129 18.3088C42.5468 18.3088 41.6016 19.2541 41.6016 20.4202V34.435C41.6016 35.6011 42.5468 36.5463 43.7129 36.5463C44.879 36.5463 45.8242 35.6011 45.8242 34.435V20.4202C45.8244 19.2541 44.879 18.3088 43.7129 18.3088Z" fill="#64BC17"/>
<path d="M36.3273 13.7214C35.1612 13.7214 34.2159 14.6667 34.2159 15.8328V34.4351C34.2159 35.6011 35.1612 36.5464 36.3273 36.5464C37.4933 36.5464 38.4386 35.6011 38.4386 34.4351V15.8328C38.4388 14.6667 37.4933 13.7214 36.3273 13.7214Z" fill="#64BC17"/>
</g>
<defs>
<clipPath id="clip0_106_666">
<rect width="72" height="72" fill="white"/>
</clipPath>
</defs>
</svg>
